<?xml version="1.0" encoding="UTF-8"?>
<svg id="a" data-name="Layer 1" xmlns="http://www.w3.org/2000/svg" width="1024" height="1024" xmlns:xlink="http://www.w3.org/1999/xlink" viewBox="0 0 1024 1024">
  <defs>
    <filter id="b" data-name="drop-shadow-1" filterUnits="userSpaceOnUse">
      <feOffset dx="0" dy="10"/>
      <feGaussianBlur result="c" stdDeviation="5"/>
      <feFlood flood-color="#000" flood-opacity=".25"/>
      <feComposite in2="c" operator="in"/>
      <feComposite in="SourceGraphic"/>
    </filter>
  </defs>
  <path d="M769.29,89.971H254.71c-86.685,0-156.957,70.272-156.957,156.957V761.508c0,86.685,70.272,156.957,156.957,156.957H769.29c86.685,0,156.957-70.272,156.957-156.957V246.928c0-86.685-70.272-156.957-156.957-156.957Z" style="fill: #fff;"/>
  <path d="M769.29,97.425H254.71c-86.685,0-156.957,70.272-156.957,156.957V768.962c0,86.685,70.272,156.957,156.957,156.957H769.29c86.685,0,156.957-70.272,156.957-156.957V254.382c0-86.685-70.272-156.957-156.957-156.957Z" style="fill: #fcfcfc; filter: url(#b);"/>
  <path d="M771.599,533.076v-168.527c0-62.119-50.357-112.476-112.476-112.476H364.877c-62.119,0-112.476,50.357-112.476,112.476v36.393" style="fill: none; stroke: #2d2d2d; stroke-miterlimit: 10; stroke-width: 55px;"/>
  <path d="M252.401,489.478v169.317c0,62.119,50.357,112.476,112.476,112.476h294.247c62.119,0,112.476-50.357,112.476-112.476v-37.183" style="fill: none; stroke: #2d2d2d; stroke-miterlimit: 10; stroke-width: 55px;"/>
  <path d="M187.09,400.942h154.138c58.313,0,92.863,25.586,170.705,110.335,77.842,84.749,112.392,110.335,170.705,110.335h154.138" style="fill: none; stroke: #2d2d2d; stroke-miterlimit: 10; stroke-width: 55px;"/>
  <g>
    <rect x="476.867" y="65.463" width="482.396" height="401.588" rx="76.632" ry="76.632" style="fill: #808285;"/>
    <path d="M916.849,65.463h-397.559c-23.398,0-42.424,19.17-42.424,42.724V424.327c0,23.563,19.026,42.724,42.424,42.724h397.559c23.388,0,42.414-19.17,42.414-42.724l-.003-316.141c0-23.554-19.035-42.724-42.414-42.724h.003Zm-32.232,33.871c-3.009-3.03-3.009-7.92,0-10.949,2.999-3.03,7.864-3.03,10.872,0l6.793,6.841,6.793-6.841c3.009-3.03,7.864-3.03,10.872,0,2.999,3.03,2.999,7.92,0,10.949l-6.802,6.841,6.802,6.841c2.999,3.03,2.999,7.929,0,10.949-3.009,3.03-7.864,3.03-10.872,0l-6.793-6.841-6.793,6.841c-3.009,3.03-7.874,3.03-10.872,0-3.009-3.021-3.009-7.92,0-10.949l6.793-6.841-6.793-6.841Zm-66.908-.895h34.597c4.246,0,7.688,3.46,7.688,7.743s-3.436,7.743-7.688,7.743h-34.597c-4.237,0-7.679-3.46-7.679-7.743-.003-4.282,3.442-7.743,7.679-7.743Zm119.731,325.889c0,11.447-9.243,20.755-20.599,20.755h-397.551c-11.366,0-20.609-9.308-20.609-20.755V156.581h438.756l.003,267.746Z" style="fill: #bcbec0;"/>
  </g>
</svg>